<svg xmlns="http://www.w3.org/2000/svg" xmlns:xlink="http://www.w3.org/1999/xlink" width="1080" zoomAndPan="magnify" viewBox="0 0 810 809.999993" height="1080" preserveAspectRatio="xMidYMid meet" version="1.0"><path fill="#ffffff" d="M 606.375 0.320312 L 202.980469 0.320312 C 91.214844 0.320312 0 91.535156 0 203.304688 L 0 607.339844 C 0 718.464844 91.214844 809.679688 202.980469 809.679688 L 607.019531 809.679688 C 718.785156 809.679688 810 718.464844 810 606.695312 L 810 203.304688 C 809.359375 91.535156 718.144531 0.320312 606.375 0.320312 Z M 269.785156 655.515625 L 154.164062 655.515625 L 154.164062 321.496094 L 269.785156 321.496094 Z M 211.332031 270.105469 C 178.574219 270.105469 152.234375 243.769531 152.234375 211.011719 C 152.234375 178.25 178.574219 151.914062 211.332031 151.914062 C 244.09375 151.914062 270.429688 178.25 270.429688 211.011719 C 269.785156 243.769531 243.449219 270.105469 211.332031 270.105469 Z M 655.195312 655.515625 L 558.84375 655.515625 L 558.84375 493.644531 C 558.84375 454.460938 553.703125 404.359375 500.386719 404.359375 C 445.789062 404.359375 436.796875 446.753906 436.796875 491.074219 L 436.796875 655.515625 L 340.445312 655.515625 L 340.445312 321.496094 L 430.371094 321.496094 L 430.371094 366.460938 L 432.941406 366.460938 C 447.074219 340.765625 479.832031 320.851562 531.222656 320.851562 C 637.207031 320.851562 655.835938 381.875 655.835938 472.445312 L 655.835938 655.515625 Z M 655.195312 655.515625 " fill-opacity="1" fill-rule="nonzero"/></svg>