<svg xmlns="http://www.w3.org/2000/svg" xmlns:xlink="http://www.w3.org/1999/xlink" width="500" zoomAndPan="magnify" viewBox="0 0 375 374.999991" height="500" preserveAspectRatio="xMidYMid meet" version="1.0"><defs><clipPath id="id1"><path d="M 50 153 L 326.386719 153 L 326.386719 225.074219 L 50 225.074219 Z M 50 153 " clip-rule="nonzero"/></clipPath><clipPath id="id2"><path d="M 48.886719 150.074219 L 326 150.074219 L 326 222 L 48.886719 222 Z M 48.886719 150.074219 " clip-rule="nonzero"/></clipPath></defs><g clip-path="url(#id1)"><path fill="#ffffff" d="M 290.519531 225.066406 L 86.023438 225.066406 C 66.210938 225.066406 50.152344 208.992188 50.152344 189.160156 C 50.152344 169.328125 66.210938 153.253906 86.023438 153.253906 L 290.519531 153.253906 C 310.328125 153.253906 326.386719 169.328125 326.386719 189.160156 C 326.386719 208.992188 310.328125 225.066406 290.519531 225.066406 Z M 290.519531 225.066406 " fill-opacity="1" fill-rule="nonzero"/></g><g clip-path="url(#id2)"><path fill="#79ceff" d="M 289.253906 221.894531 L 84.757812 221.894531 C 64.945312 221.894531 48.886719 205.820312 48.886719 185.988281 C 48.886719 166.160156 64.945312 150.082031 84.757812 150.082031 L 289.253906 150.082031 C 309.066406 150.082031 325.125 166.160156 325.125 185.988281 C 325.125 205.820312 309.066406 221.894531 289.253906 221.894531 Z M 289.253906 221.894531 " fill-opacity="1" fill-rule="nonzero"/></g><path fill="#ffffff" d="M 119.976562 175.746094 C 121.933594 175.429688 124.460938 175.242188 127.121094 175.242188 C 131.566406 175.242188 134.464844 176.066406 136.714844 177.757812 C 139.148438 179.582031 140.679688 182.433594 140.679688 186.589844 C 140.679688 191.089844 139.054688 194.195312 136.808594 196.085938 C 134.34375 198.136719 130.566406 199.121094 126.003906 199.121094 C 123.25 199.121094 121.292969 198.960938 119.988281 198.777344 Z M 125.273438 194.886719 C 125.738281 194.964844 126.46875 194.980469 127.121094 194.980469 C 131.925781 195.019531 135.078125 192.371094 135.078125 186.761719 C 135.089844 181.886719 132.242188 179.332031 127.679688 179.332031 C 126.523438 179.332031 125.738281 179.425781 125.273438 179.53125 Z M 125.273438 194.886719 " fill-opacity="1" fill-rule="nonzero"/><path fill="#ffffff" d="M 165.597656 186.921875 C 165.597656 194.621094 160.957031 199.269531 154.101562 199.269531 C 147.15625 199.269531 143.074219 194.007812 143.074219 187.308594 C 143.074219 180.304688 147.582031 175.042969 154.476562 175.042969 C 161.671875 175.042969 165.613281 180.4375 165.597656 186.921875 Z M 148.675781 187.214844 C 148.675781 191.808594 150.832031 195.046875 154.371094 195.046875 C 157.949219 195.046875 159.996094 191.664062 159.996094 187.09375 C 159.996094 182.875 158 179.25 154.355469 179.25 C 150.777344 179.265625 148.675781 182.648438 148.675781 187.214844 Z M 148.675781 187.214844 " fill-opacity="1" fill-rule="nonzero"/><path fill="#ffffff" d="M 172.625 198.882812 L 167.074219 175.429688 L 172.757812 175.429688 L 174.527344 185.085938 C 175.03125 187.882812 175.511719 190.917969 175.882812 193.289062 L 175.964844 193.289062 C 176.335938 190.746094 176.90625 187.933594 177.492188 185.019531 L 179.503906 175.429688 L 185.128906 175.429688 L 187.007812 185.324219 C 187.511719 188.066406 187.898438 190.570312 188.242188 193.167969 L 188.308594 193.167969 C 188.683594 190.558594 189.175781 187.828125 189.695312 185.019531 L 191.597656 175.429688 L 196.984375 175.429688 L 190.929688 198.882812 L 185.210938 198.882812 L 183.214844 188.785156 C 182.75 186.441406 182.375 184.230469 182.082031 181.566406 L 182.015625 181.566406 C 181.617188 184.207031 181.246094 186.429688 180.6875 188.800781 L 178.453125 198.882812 Z M 172.625 198.882812 " fill-opacity="1" fill-rule="nonzero"/><path fill="#ffffff" d="M 199.726562 198.894531 L 199.726562 175.441406 L 205.898438 175.441406 L 210.769531 184.046875 C 212.164062 186.507812 213.535156 189.4375 214.601562 192.089844 L 214.695312 192.078125 C 214.375 188.972656 214.269531 185.816406 214.269531 182.273438 L 214.269531 175.441406 L 219.136719 175.441406 L 219.136719 198.894531 L 213.589844 198.894531 L 208.574219 189.867188 C 207.175781 187.335938 205.632812 184.324219 204.503906 181.582031 L 204.382812 181.59375 C 204.542969 184.699219 204.609375 188.027344 204.609375 191.851562 L 204.609375 198.894531 Z M 199.726562 198.894531 " fill-opacity="1" fill-rule="nonzero"/><path fill="#ffffff" d="M 223.726562 175.441406 L 229.023438 175.441406 L 229.023438 194.445312 L 238.351562 194.445312 L 238.351562 198.894531 L 223.726562 198.894531 Z M 223.726562 175.441406 " fill-opacity="1" fill-rule="nonzero"/><path fill="#ffffff" d="M 261.59375 186.933594 C 261.59375 194.632812 256.949219 199.28125 250.097656 199.28125 C 243.152344 199.28125 239.066406 194.019531 239.066406 187.320312 C 239.066406 180.316406 243.578125 175.054688 250.46875 175.054688 C 257.667969 175.070312 261.59375 180.449219 261.59375 186.933594 Z M 244.667969 187.230469 C 244.667969 191.824219 246.824219 195.058594 250.363281 195.058594 C 253.941406 195.058594 255.992188 191.675781 255.992188 187.109375 C 255.992188 182.886719 253.996094 179.265625 250.351562 179.265625 C 246.773438 179.277344 244.667969 182.671875 244.667969 187.230469 Z M 244.667969 187.230469 " fill-opacity="1" fill-rule="nonzero"/><path fill="#ffffff" d="M 269.960938 192.890625 L 268.3125 198.910156 L 262.832031 198.910156 L 269.988281 175.453125 L 276.921875 175.453125 L 284.210938 198.910156 L 278.503906 198.910156 L 276.707031 192.890625 Z M 275.921875 188.933594 L 274.460938 183.953125 C 274.058594 182.566406 273.648438 180.808594 273.289062 179.4375 L 273.207031 179.4375 C 272.863281 180.824219 272.515625 182.59375 272.132812 183.964844 L 270.734375 188.945312 Z M 275.921875 188.933594 " fill-opacity="1" fill-rule="nonzero"/><path fill="#ffffff" d="M 287.339844 175.773438 C 289.292969 175.453125 291.820312 175.269531 294.484375 175.269531 C 298.925781 175.269531 301.828125 176.09375 304.074219 177.785156 C 306.511719 179.609375 308.039062 182.460938 308.039062 186.617188 C 308.039062 191.117188 306.417969 194.222656 304.167969 196.113281 C 301.707031 198.164062 297.929688 199.148438 293.367188 199.148438 C 290.613281 199.148438 288.65625 198.988281 287.351562 198.800781 Z M 292.632812 194.914062 C 293.097656 194.992188 293.832031 195.007812 294.484375 195.007812 C 299.285156 195.046875 302.4375 192.394531 302.4375 186.789062 C 302.453125 181.914062 299.605469 179.355469 295.042969 179.355469 C 293.882812 179.355469 293.097656 179.449219 292.632812 179.558594 Z M 292.632812 194.914062 " fill-opacity="1" fill-rule="nonzero"/><path fill="#ffffff" d="M 97.558594 188.773438 L 97.558594 172.097656 L 83.082031 172.097656 L 83.082031 188.773438 L 75.351562 188.773438 L 82.734375 199.226562 L 90.105469 209.683594 L 97.476562 199.226562 L 104.847656 188.773438 Z M 97.558594 188.773438 " fill-opacity="1" fill-rule="nonzero"/></svg>